<svg width="136" height="136" viewBox="0 0 136 136" fill="none" xmlns="http://www.w3.org/2000/svg">
<circle cx="68" cy="68" r="68" fill="#C6C6C6" fill-opacity="0.25"/>
<path d="M68 52.4L87.8 72.2C88.9554 73.0666 90.3847 73.4873 91.8253 73.3849C93.266 73.2825 94.6214 72.6639 95.6426 71.6426C96.6639 70.6214 97.2825 69.266 97.3849 67.8253C97.4873 66.3847 97.0666 64.9554 96.2 63.8L72.2 39.8C69.8 37.4 66.2 37.4 63.8 39.8L59.6 44M38 38L98 98M51.8 51.8L39.8 63.8C38.9334 64.9554 38.5127 66.3847 38.6151 67.8253C38.7175 69.266 39.3361 70.6214 40.3574 71.6426C41.3786 72.6639 42.734 73.2825 44.1747 73.3849C45.6153 73.4873 47.0446 73.0666 48.2 72.2L60.2 60.2M74 98V80C74 78.4087 73.3679 76.8826 72.2426 75.7574C71.1174 74.6321 69.5913 74 68 74C66.4087 74 64.8826 74.6321 63.7574 75.7574C62.6321 76.8826 62 78.4087 62 80V98" stroke="#696262" stroke-width="2" stroke-linecap="round" stroke-linejoin="round"/>
<path d="M44 74V92C44 93.5913 44.6321 95.1174 45.7574 96.2426C46.8826 97.3679 48.4087 98 50 98H86C87.5913 98 89.1174 97.3679 90.2426 96.2426C91.3679 95.1174 92 93.5913 92 92" stroke="#696262" stroke-width="2" stroke-linecap="round" stroke-linejoin="round"/>
</svg>
