<svg width="1440" height="135" viewBox="0 0 1440 135" fill="none" xmlns="http://www.w3.org/2000/svg">
<g clip-path="url(#clip0_612_20584)">
<path d="M72.5 134V26.75H96.5V70.7H172.1V26.75H196.1V134H172.1V90.2H96.5V134H72.5ZM263.73 134.75C244.63 134.75 229.83 130.2 219.33 121.1C208.83 111.9 203.58 98.3 203.58 80.3C203.58 62.4 208.83 48.9 219.33 39.8C229.83 30.6 244.98 26 264.78 26H291.78C311.58 26 326.73 30.6 337.23 39.8C347.73 48.9 352.98 62.4 352.98 80.3C352.98 98.3 347.73 111.9 337.23 121.1C326.73 130.2 311.83 134.75 292.53 134.75H263.73ZM266.43 45.5C255.33 45.5 246.68 47.5 240.48 51.5C234.28 55.5 230.38 61.85 228.78 70.55H327.78C326.18 61.85 322.28 55.5 316.08 51.5C309.88 47.5 301.23 45.5 290.13 45.5H266.43ZM266.88 115.25H290.13C301.33 115.25 309.98 113.25 316.08 109.25C322.28 105.25 326.18 98.85 327.78 90.05H228.78C230.38 98.85 234.28 105.25 240.48 109.25C246.68 113.25 255.48 115.25 266.88 115.25ZM360.43 134V26.75H380.53L430.18 61.55H430.93L480.58 26.75H500.68V134H476.68V56.75L442.63 79.55V134H418.63V79.55L384.43 56.75V134H360.43ZM514.209 134V26.75H631.809V46.25H538.209V69.95H623.109V89.45H538.209V114.5H631.809V134H514.209ZM685.684 134V26.75H800.284V46.25H709.684V75.95H788.584V95.45H709.684V134H685.684ZM809.287 134V26.75H833.287V134H809.287ZM846.758 134V26.75H871.058L946.958 103.85V26.75H970.958V134H946.658L870.758 56.75V134H846.758ZM984.424 134V26.75H1002.12L1050.12 26.6C1069.52 26.6 1084.57 31.15 1095.27 40.25C1105.97 49.35 1111.32 62.7 1111.32 80.3C1111.32 97.9 1105.97 111.25 1095.27 120.35C1084.57 129.45 1069.52 134 1050.12 134H984.424ZM1048.47 46.1H1008.42V114.5H1048.47C1061.07 114.5 1070.62 111.75 1077.12 106.25C1083.62 100.75 1086.87 92.1 1086.87 80.3C1086.87 68.4 1083.62 59.75 1077.12 54.35C1070.62 48.85 1061.07 46.1 1048.47 46.1ZM1118.87 134V26.75H1236.47V46.25H1142.87V69.95H1227.77V89.45H1142.87V114.5H1236.47V134H1118.87ZM1245.4 134V26.75H1335.25C1346.35 26.75 1354.95 29.55 1361.05 35.15C1367.25 40.75 1370.35 49.25 1370.35 60.65C1370.35 70.35 1368.1 77.95 1363.6 83.45C1359.1 88.95 1352.7 92.4 1344.4 93.8L1369.15 134H1341.85L1318.9 94.55H1269.4V134H1245.4ZM1332.4 46.25H1269.4V74.9L1332.4 75.05C1336.8 75.05 1340.15 73.95 1342.45 71.75C1344.85 69.55 1346.05 65.85 1346.05 60.65C1346.05 55.35 1344.85 51.65 1342.45 49.55C1340.15 47.35 1336.8 46.25 1332.4 46.25Z" fill="white" fill-opacity="0.04"/>
<g filter="url(#filter0_f_612_20584)">
<rect x="1440" y="373" width="1440" height="267" transform="rotate(180 1440 373)" fill="black"/>
</g>
</g>
<defs>
<filter id="filter0_f_612_20584" x="-98.4" y="7.6" width="1636.8" height="463.8" filterUnits="userSpaceOnUse" color-interpolation-filters="sRGB">
<feFlood flood-opacity="0" result="BackgroundImageFix"/>
<feBlend mode="normal" in="SourceGraphic" in2="BackgroundImageFix" result="shape"/>
<feGaussianBlur stdDeviation="49.2" result="effect1_foregroundBlur_612_20584"/>
</filter>
<clipPath id="clip0_612_20584">
<rect width="1440" height="135" fill="white"/>
</clipPath>
</defs>
</svg>
