<svg width="184" height="15" viewBox="0 0 184 15" fill="none" xmlns="http://www.w3.org/2000/svg">
<path d="M9.76622e-05 14.3999V0.0999017H3.2001V5.9599H13.2801V0.0999017H16.4801V14.3999H13.2801V8.5599H3.2001V14.3999H9.76622e-05ZM26.4974 14.4999C23.9508 14.4999 21.9774 13.8932 20.5774 12.6799C19.1774 11.4532 18.4774 9.6399 18.4774 7.2399C18.4774 4.85324 19.1774 3.05324 20.5774 1.8399C21.9774 0.613235 23.9974 -9.82285e-05 26.6374 -9.82285e-05H30.2374C32.8774 -9.82285e-05 34.8974 0.613235 36.2974 1.8399C37.6974 3.05324 38.3974 4.85324 38.3974 7.2399C38.3974 9.6399 37.6974 11.4532 36.2974 12.6799C34.8974 13.8932 32.9108 14.4999 30.3374 14.4999H26.4974ZM26.8574 2.5999C25.3774 2.5999 24.2241 2.86657 23.3974 3.3999C22.5708 3.93323 22.0508 4.7799 21.8374 5.9399H35.0374C34.8241 4.7799 34.3041 3.93323 33.4774 3.3999C32.6508 2.86657 31.4974 2.5999 30.0174 2.5999H26.8574ZM26.9174 11.8999H30.0174C31.5108 11.8999 32.6641 11.6332 33.4774 11.0999C34.3041 10.5666 34.8241 9.71324 35.0374 8.5399H21.8374C22.0508 9.71324 22.5708 10.5666 23.3974 11.0999C24.2241 11.6332 25.3974 11.8999 26.9174 11.8999ZM40.3907 14.3999V0.0999017H43.0707L49.6907 4.7399H49.7907L56.4107 0.0999017H59.0907V14.3999H55.8907V4.0999L51.3507 7.1399V14.3999H48.1507V7.1399L43.5907 4.0999V14.3999H40.3907ZM61.8946 14.3999V0.0999017H77.5746V2.6999H65.0946V5.8599H76.4146V8.4599H65.0946V11.7999H77.5746V14.3999H61.8946ZM86.7579 14.3999V0.0999017H102.038V2.6999H89.9579V6.6599H100.478V9.2599H89.9579V14.3999H86.7579ZM104.238 14.3999V0.0999017H107.438V14.3999H104.238ZM110.234 14.3999V0.0999017H113.474L123.594 10.3799V0.0999017H126.794V14.3999H123.554L113.434 4.0999V14.3999H110.234ZM129.59 14.3999V0.0999017H131.95L138.35 0.0799019C140.937 0.0799019 142.943 0.686569 144.37 1.8999C145.797 3.11324 146.51 4.89324 146.51 7.2399C146.51 9.58657 145.797 11.3666 144.37 12.5799C142.943 13.7932 140.937 14.3999 138.35 14.3999H129.59ZM138.13 2.6799H132.79V11.7999H138.13C139.81 11.7999 141.083 11.4332 141.95 10.6999C142.817 9.96657 143.25 8.81324 143.25 7.2399C143.25 5.65324 142.817 4.4999 141.95 3.7799C141.083 3.04657 139.81 2.6799 138.13 2.6799ZM148.516 14.3999V0.0999017H164.196V2.6999H151.716V5.8599H163.036V8.4599H151.716V11.7999H164.196V14.3999H148.516ZM166.387 14.3999V0.0999017H178.367C179.847 0.0999017 180.993 0.473235 181.807 1.2199C182.633 1.96657 183.047 3.0999 183.047 4.6199C183.047 5.91324 182.747 6.92657 182.147 7.6599C181.547 8.39324 180.693 8.85324 179.587 9.0399L182.887 14.3999H179.247L176.187 9.1399H169.587V14.3999H166.387ZM177.987 2.6999H169.587V6.5199L177.987 6.5399C178.573 6.5399 179.02 6.39324 179.327 6.0999C179.647 5.80657 179.807 5.31324 179.807 4.6199C179.807 3.91323 179.647 3.4199 179.327 3.1399C179.02 2.84657 178.573 2.6999 177.987 2.6999Z" fill="#0E0D0C"/>
</svg>
