<svg width="202" height="16" viewBox="0 0 202 16" fill="none" xmlns="http://www.w3.org/2000/svg">
<path d="M0.000937507 15.84V0.109996H3.52094V6.556H14.6089V0.109996H18.1289V15.84H14.6089V9.416H3.52094V15.84H0.000937507ZM29.148 15.95C26.3467 15.95 24.176 15.2827 22.636 13.948C21.096 12.5987 20.326 10.604 20.326 7.964C20.326 5.33866 21.096 3.35866 22.636 2.024C24.176 0.674662 26.398 -4.29153e-06 29.302 -4.29153e-06H33.262C36.166 -4.29153e-06 38.388 0.674662 39.928 2.024C41.468 3.35866 42.238 5.33866 42.238 7.964C42.238 10.604 41.468 12.5987 39.928 13.948C38.388 15.2827 36.2027 15.95 33.372 15.95H29.148ZM29.544 2.86C27.916 2.86 26.6473 3.15333 25.738 3.74C24.8287 4.32666 24.2567 5.258 24.022 6.534H38.542C38.3074 5.258 37.7354 4.32666 36.826 3.74C35.9167 3.15333 34.648 2.86 33.02 2.86H29.544ZM29.61 13.09H33.02C34.6627 13.09 35.9313 12.7967 36.826 12.21C37.7354 11.6233 38.3074 10.6847 38.542 9.394H24.022C24.2567 10.6847 24.8287 11.6233 25.738 12.21C26.6473 12.7967 27.938 13.09 29.61 13.09ZM44.4306 15.84V0.109996H47.3786L54.6606 5.214H54.7706L62.0526 0.109996H65.0006V15.84H61.4806V4.51L56.4866 7.854V15.84H52.9666V7.854L47.9506 4.51V15.84H44.4306ZM68.0849 15.84V0.109996H85.3329V2.97H71.6049V6.446H84.0569V9.306H71.6049V12.98H85.3329V15.84H68.0849ZM95.4345 15.84V0.109996H112.243V2.97H98.9545V7.326H110.527V10.186H98.9545V15.84H95.4345ZM114.663 15.84V0.109996H118.183V15.84H114.663ZM121.259 15.84V0.109996H124.823L135.955 11.418V0.109996H139.475V15.84H135.911L124.779 4.51V15.84H121.259ZM142.55 15.84V0.109996H145.146L152.186 0.0879959C155.031 0.0879959 157.238 0.755329 158.808 2.09C160.377 3.42466 161.162 5.38266 161.162 7.964C161.162 10.5453 160.377 12.5033 158.808 13.838C157.238 15.1727 155.031 15.84 152.186 15.84H142.55ZM151.944 2.948H146.07V12.98H151.944C153.792 12.98 155.192 12.5767 156.146 11.77C157.099 10.9633 157.576 9.69466 157.576 7.964C157.576 6.21866 157.099 4.95 156.146 4.158C155.192 3.35133 153.792 2.948 151.944 2.948ZM163.368 15.84V0.109996H180.616V2.97H166.888V6.446H179.34V9.306H166.888V12.98H180.616V15.84H163.368ZM183.026 15.84V0.109996H196.204C197.832 0.109996 199.094 0.520662 199.988 1.342C200.898 2.16333 201.352 3.41 201.352 5.082C201.352 6.50466 201.022 7.61933 200.362 8.426C199.702 9.23266 198.764 9.73866 197.546 9.944L201.176 15.84H197.172L193.806 10.054H186.546V15.84H183.026ZM195.786 2.97H186.546V7.172L195.786 7.194C196.432 7.194 196.923 7.03266 197.26 6.71C197.612 6.38733 197.788 5.84466 197.788 5.082C197.788 4.30466 197.612 3.762 197.26 3.454C196.923 3.13133 196.432 2.97 195.786 2.97Z" fill="white"/>
</svg>
