<svg width="294" height="36" viewBox="0 0 294 36" fill="none" xmlns="http://www.w3.org/2000/svg">
<path d="M2.1 28V6.55H6.9V15.34H22.02V6.55H26.82V28H22.02V19.24H6.9V28H2.1ZM41.846 28.15C38.026 28.15 35.066 27.24 32.966 25.42C30.866 23.58 29.816 20.86 29.816 17.26C29.816 13.68 30.866 10.98 32.966 9.16C35.066 7.32 38.096 6.4 42.056 6.4H47.456C51.416 6.4 54.446 7.32 56.546 9.16C58.646 10.98 59.696 13.68 59.696 17.26C59.696 20.86 58.646 23.58 56.546 25.42C54.446 27.24 51.466 28.15 47.606 28.15H41.846ZM42.386 10.3C40.166 10.3 38.436 10.7 37.196 11.5C35.956 12.3 35.176 13.57 34.856 15.31H54.656C54.336 13.57 53.556 12.3 52.316 11.5C51.076 10.7 49.346 10.3 47.126 10.3H42.386ZM42.476 24.25H47.126C49.366 24.25 51.096 23.85 52.316 23.05C53.556 22.25 54.336 20.97 54.656 19.21H34.856C35.176 20.97 35.956 22.25 37.196 23.05C38.436 23.85 40.196 24.25 42.476 24.25ZM62.6859 28V6.55H66.7059L76.6359 13.51H76.7859L86.7159 6.55H90.7359V28H85.9359V12.55L79.1259 17.11V28H74.3259V17.11L67.4859 12.55V28H62.6859ZM94.9418 28V6.55H118.462V10.45H99.7418V15.19H116.722V19.09H99.7418V24.1H118.462V28H94.9418ZM132.237 28V6.55H155.157V10.45H137.037V16.39H152.817V20.29H137.037V28H132.237ZM158.457 28V6.55H163.257V28H158.457ZM167.452 28V6.55H172.312L187.492 21.97V6.55H192.292V28H187.432L172.252 12.55V28H167.452ZM196.485 28V6.55H200.025L209.625 6.52C213.505 6.52 216.515 7.43 218.655 9.25C220.795 11.07 221.865 13.74 221.865 17.26C221.865 20.78 220.795 23.45 218.655 25.27C216.515 27.09 213.505 28 209.625 28H196.485ZM209.295 10.42H201.285V24.1H209.295C211.815 24.1 213.725 23.55 215.025 22.45C216.325 21.35 216.975 19.62 216.975 17.26C216.975 14.88 216.325 13.15 215.025 12.07C213.725 10.97 211.815 10.42 209.295 10.42ZM224.873 28V6.55H248.393V10.45H229.673V15.19H246.653V19.09H229.673V24.1H248.393V28H224.873ZM251.68 28V6.55H269.65C271.87 6.55 273.59 7.11 274.81 8.23C276.05 9.35 276.67 11.05 276.67 13.33C276.67 15.27 276.22 16.79 275.32 17.89C274.42 18.99 273.14 19.68 271.48 19.96L276.43 28H270.97L266.38 20.11H256.48V28H251.68ZM269.08 10.45H256.48V16.18L269.08 16.21C269.96 16.21 270.63 15.99 271.09 15.55C271.57 15.11 271.81 14.37 271.81 13.33C271.81 12.27 271.57 11.53 271.09 11.11C270.63 10.67 269.96 10.45 269.08 10.45Z" fill="white"/>
<path d="M285 17L293 9M293 15.8571V9L286.143 9" stroke="#ECEEEC" stroke-width="1.5" stroke-linecap="round" stroke-linejoin="round"/>
</svg>
