<svg width="26" height="26" viewBox="0 0 26 26" fill="none" xmlns="http://www.w3.org/2000/svg">
<path d="M9.92279 11.7757C9.81445 11.7648 9.68445 11.7648 9.56529 11.7757C6.98695 11.689 4.93945 9.5765 4.93945 6.9765C4.93945 4.32234 7.08445 2.1665 9.74945 2.1665C12.4036 2.1665 14.5595 4.32234 14.5595 6.9765C14.5486 9.5765 12.5011 11.689 9.92279 11.7757Z" stroke="white" stroke-width="1.5" stroke-linecap="round" stroke-linejoin="round"/>
<path d="M17.7776 4.3335C19.8792 4.3335 21.5692 6.03433 21.5692 8.12516C21.5692 10.1727 19.9442 11.841 17.9184 11.9168C17.8317 11.906 17.7342 11.906 17.6367 11.9168" stroke="white" stroke-width="1.5" stroke-linecap="round" stroke-linejoin="round"/>
<path d="M4.50727 15.7735C1.8856 17.5285 1.8856 20.3885 4.50727 22.1327C7.48643 24.126 12.3723 24.126 15.3514 22.1327C17.9731 20.3777 17.9731 17.5177 15.3514 15.7735C12.3831 13.791 7.49727 13.791 4.50727 15.7735Z" stroke="white" stroke-width="1.5" stroke-linecap="round" stroke-linejoin="round"/>
<path d="M19.8691 21.6665C20.6491 21.504 21.3858 21.1898 21.9925 20.724C23.6825 19.4565 23.6825 17.3657 21.9925 16.0982C21.3966 15.6432 20.6708 15.3398 19.9016 15.1665" stroke="white" stroke-width="1.5" stroke-linecap="round" stroke-linejoin="round"/>
</svg>
