<svg width="26" height="26" viewBox="0 0 26 26" fill="none" xmlns="http://www.w3.org/2000/svg">
<path fill-rule="evenodd" clip-rule="evenodd" d="M13.0013 20.5837C13.9972 20.5837 14.9833 20.3875 15.9033 20.0064C16.8234 19.6253 17.6594 19.0667 18.3635 18.3626C19.0677 17.6584 19.6263 16.8224 20.0074 15.9023C20.3885 14.9823 20.5846 13.9962 20.5846 13.0003C20.5846 12.0045 20.3885 11.0184 20.0074 10.0983C19.6263 9.17826 19.0677 8.34228 18.3635 7.6381C17.6594 6.93392 16.8234 6.37534 15.9033 5.99424C14.9833 5.61314 13.9972 5.41699 13.0013 5.41699C10.9901 5.41699 9.06123 6.21595 7.63908 7.6381C6.21692 9.06025 5.41797 10.9891 5.41797 13.0003C5.41797 15.0116 6.21692 16.9404 7.63908 18.3626C9.06123 19.7847 10.9901 20.5837 13.0013 20.5837ZM10.9289 7.99533C11.586 7.72339 12.2902 7.58351 13.0013 7.58366C13.145 7.58366 13.2827 7.52659 13.3843 7.42501C13.4859 7.32343 13.543 7.18565 13.543 7.04199C13.543 6.89833 13.4859 6.76056 13.3843 6.65898C13.2827 6.55739 13.145 6.50033 13.0013 6.50033C11.2774 6.50033 9.62409 7.18515 8.40511 8.40413C7.18612 9.62312 6.5013 11.2764 6.5013 13.0003C6.5013 13.144 6.55837 13.2818 6.65995 13.3833C6.76153 13.4849 6.89931 13.542 7.04297 13.542C7.18663 13.542 7.3244 13.4849 7.42598 13.3833C7.52757 13.2818 7.58464 13.144 7.58464 13.0003C7.58454 11.9288 7.90223 10.8814 8.49752 9.99051C9.0928 9.09961 9.93893 8.40527 10.9289 7.99533Z" fill="white" fill-opacity="0.25"/>
<path d="M22.2096 22.2087L18.418 18.417" stroke="white" stroke-linecap="round"/>
<path d="M11.9173 21.1252C17.0029 21.1252 21.1257 17.0024 21.1257 11.9168C21.1257 6.83121 17.0029 2.7085 11.9173 2.7085C6.8317 2.7085 2.70898 6.83121 2.70898 11.9168C2.70898 17.0024 6.8317 21.1252 11.9173 21.1252Z" stroke="white"/>
</svg>
