<svg width="26" height="26" viewBox="0 0 26 26" fill="none" xmlns="http://www.w3.org/2000/svg">
<path d="M19.4946 16.7918V23.2918M22.75 20.0364H16.25M14.0833 23.2918H10.8333C7.25833 23.2918 5.47083 23.2918 4.36042 22.1814C3.25 21.071 3.25 19.2835 3.25 15.7085V12.9893C3.25 11.1672 3.25 10.2572 3.63567 9.4685C4.02133 8.67983 4.74067 8.12083 6.17717 7.00283L8.34383 5.31825C10.5809 3.57841 11.7 2.7085 13 2.7085C14.3 2.7085 15.4191 3.57841 17.6562 5.31825L19.8228 7.00283C21.2604 8.12083 21.9787 8.67983 22.3643 9.4685C22.75 10.2572 22.75 11.1672 22.75 12.9893V14.6252" stroke="white" stroke-width="1.5" stroke-linecap="round" stroke-linejoin="round"/>
<path d="M9.75 23.2917V17.875C9.75 16.3432 9.75 15.5772 10.2267 15.1017C10.7022 14.625 11.4682 14.625 13 14.625C13.4138 14.625 13.7724 14.625 14.0833 14.6347" stroke="white" stroke-width="1.5" stroke-linecap="round" stroke-linejoin="round"/>
</svg>
